<?xml version="1.0" encoding="UTF-8" standalone="no"?>
<!DOCTYPE svg PUBLIC "-//W3C//DTD SVG 1.1//EN" "http://www.w3.org/Graphics/SVG/1.1/DTD/svg11.dtd">
<svg width="100%" height="100%" viewBox="0 0 49 43" version="1.1" xmlns="http://www.w3.org/2000/svg" xmlns:xlink="http://www.w3.org/1999/xlink" xml:space="preserve" xmlns:serif="http://www.serif.com/" style="fill-rule:evenodd;clip-rule:evenodd;stroke-linejoin:round;stroke-miterlimit:1.41421;">
    <g transform="matrix(4.16667,0,0,4.16667,-30947,-12836.8)">
        <g transform="matrix(3.76309,0,0,1.9078,6729.23,2657.01)">
            <g transform="matrix(0.0502428,0,0,0.0991025,185.5,222.097)">
                <path d="M13.881,33.268C13.064,33.268 12.399,32.604 12.399,31.786L12.399,27.318C12.399,26.5 13.064,25.833 13.881,25.833L18.35,25.833C19.17,25.833 19.834,26.5 19.834,27.318L19.834,31.786C19.834,32.604 19.17,33.268 18.35,33.268L13.881,33.268ZM28.751,33.268C27.933,33.268 27.269,32.604 27.269,31.786L27.269,27.318C27.269,26.5 27.933,25.833 28.751,25.833L33.219,25.833C34.04,25.833 34.704,26.5 34.704,27.318L34.704,31.786C34.704,32.604 34.04,33.268 33.219,33.268L28.751,33.268ZM43.621,33.268C42.803,33.268 42.139,32.604 42.139,31.786L42.139,27.318C42.139,26.5 42.803,25.833 43.621,25.833L48.089,25.833C48.909,25.833 49.573,26.5 49.573,27.318L49.573,31.786C49.573,32.604 48.909,33.268 48.089,33.268L43.621,33.268ZM12.399,42.939L12.399,38.469C12.399,37.651 13.063,36.987 13.881,36.987L18.349,36.987C19.17,36.987 19.834,37.651 19.834,38.469L19.834,42.939C19.834,43.757 19.17,44.421 18.349,44.421L13.881,44.421C13.063,44.421 12.399,43.757 12.399,42.939ZM27.269,42.939L27.269,38.469C27.269,37.651 27.933,36.987 28.751,36.987L33.219,36.987C34.039,36.987 34.703,37.651 34.703,38.469L34.703,42.939C34.703,43.757 34.039,44.421 33.219,44.421L28.751,44.421C27.933,44.421 27.269,43.757 27.269,42.939ZM42.138,42.939L42.138,38.469C42.138,37.651 42.802,36.987 43.62,36.987L48.088,36.987C48.909,36.987 49.573,37.651 49.573,38.469L49.573,42.939C49.573,43.757 48.909,44.421 48.088,44.421L43.62,44.421C42.802,44.421 42.138,43.757 42.138,42.939ZM61.968,15.419L61.968,20.376L61.958,20.376L61.958,50.405C61.958,52.876 59.953,54.881 57.482,54.881L4.475,54.881C2.004,54.881 0.001,52.876 0.001,50.405L0.001,7.499C0.001,5.028 2.004,3.023 4.475,3.023L14.926,3.023L14.926,2.934C14.926,1.578 16.023,0.478 17.382,0.478C18.737,0.478 19.837,1.578 19.837,2.934L19.837,8.007C19.837,9.365 18.737,10.463 17.382,10.463C16.023,10.463 14.926,9.365 14.926,8.007L14.926,7.947L4.97,7.947L4.97,49.956L56.984,49.956L56.984,20.376L9.924,20.376L9.924,15.419L56.984,15.419L56.984,7.947L54.533,7.947L54.533,3.023L57.482,3.023C59.953,3.023 61.958,5.028 61.958,7.499L61.958,15.419L61.968,15.419ZM44.642,8.006L44.642,7.949L24.794,7.949L24.794,3.023L44.642,3.023L44.642,2.933C44.642,1.578 45.742,0.478 47.098,0.478C48.456,0.478 49.554,1.578 49.554,2.933L49.554,3.023L49.576,3.023L49.576,7.949L49.554,7.949L49.554,8.006C49.554,9.365 48.456,10.462 47.098,10.462C45.742,10.462 44.642,9.365 44.642,8.006Z" style="fill:rgb(166,166,166);"/>
            </g>
        </g>
    </g>
</svg>
